HIERARCHY
ROOT Hips
{
  OFFSET 1.44925e-005 102.336 -0.101585
  CHANNELS 6 Xposition Yposition Zposition Zrotation Xrotation Yrotation
  JOINT RightUpLeg
  {
    OFFSET -8.9458 -8.66707 0.101652
    CHANNELS 3 Zrotation Xrotation Yrotation
    JOINT RightLeg
    {
      OFFSET 0 -44.4227 1.3727
      CHANNELS 3 Zrotation Xrotation Yrotation
      JOINT RightFoot
      {
        OFFSET 0.253549 -42.0924 -1.46059
        CHANNELS 3 Zrotation Xrotation Yrotation
        JOINT RightToes
        {
          OFFSET 0.04 -4.41509 8.4991
          CHANNELS 3 Zrotation Xrotation Yrotation
          End Site
          {
            OFFSET -0.08 -0.137448 9.77979
          }
        }
      }
    }
  }
  JOINT Spine
  {
    OFFSET 0 11.8905 0
    CHANNELS 3 Zrotation Xrotation Yrotation
    JOINT Spine1
    {
      OFFSET 0 25.6574 0.127663
      CHANNELS 3 Zrotation Xrotation Yrotation
      JOINT HEad
      {
        OFFSET 0 8.73416 0.011341
        CHANNELS 3 Zrotation Xrotation Yrotation
        End Site
        {
          OFFSET -0.29 12.7742 2.51395
        }
      }
      JOINT LeftShoulder1
      {
        OFFSET 8.99 -0.362252 -0.22
        CHANNELS 3 Zrotation Xrotation Yrotation
        JOINT LeftArm
        {
          OFFSET 10.2827 -0.00337999 0.322123
          CHANNELS 3 Zrotation Xrotation Yrotation
          JOINT LeftForeArm
          {
            OFFSET 26.2597 0.099144 -1.42434
            CHANNELS 3 Zrotation Xrotation Yrotation
            JOINT LeftHand
            {
              OFFSET 22.0902 0.085362 1.02216
              CHANNELS 3 Zrotation Xrotation Yrotation
              End Site
              {
                OFFSET 13.419 -0.6 1.50291
              }
            }
          }
        }
      }
      JOINT RightShoulder
      {
        OFFSET -8.99 -0.362252 -0.22
        CHANNELS 3 Zrotation Xrotation Yrotation
        JOINT RightArm
        {
          OFFSET -10.2827 -0.00338 0.322123
          CHANNELS 3 Zrotation Xrotation Yrotation
          JOINT RightForeArm
          {
            OFFSET -26.364 0.099144 -1.42434
            CHANNELS 3 Zrotation Xrotation Yrotation
            JOINT RightHand
            {
              OFFSET -22.0324 0.085362 1.02216
              CHANNELS 3 Zrotation Xrotation Yrotation
              End Site
              {
                OFFSET -13.3284 -0.6 1.50291
              }
            }
          }
        }
      }
    }
  }
  JOINT LeftUpLeg
  {
    OFFSET 8.9458 -8.66707 0.101652
    CHANNELS 3 Zrotation Xrotation Yrotation
    JOINT LeftLeg
    {
      OFFSET 0 -44.4227 1.3727
      CHANNELS 3 Zrotation Xrotation Yrotation
      JOINT LeftFoot
      {
        OFFSET -0.253549 -42.0924 -1.46059
        CHANNELS 3 Zrotation Xrotation Yrotation
        JOINT LeftToes
        {
          OFFSET -0.04 -4.41509 8.4991
          CHANNELS 3 Zrotation Xrotation Yrotation
          End Site
          {
            OFFSET 0.08 -0.047448 9.77979
          }
        }
      }
    }
  }
}
MOTION
Frames:	10
Frame Time:	0.0333333
-5.97947 99.3568 90.8315 1.69504 2.4712 -178.206 -16.7383 -8.58695 -18.9446 -0.235333 37.9211 4.09354 17.6152 -22.0972 2.03702 0.0462048 0.000530889 0.662642 13.347 11.5656 -0.587109 -10.3277 5.85232 3.00165 3.33287 -12.3571 -7.41698 -26.2717 2.50581 -4.21395 -49.998 9.71886 -32.8419 -25.3078 14.4364 -62.413 10.446 8.11288 -16.0296 38.4144 6.05765 9.54717 34.0424 4.0306 11.0299 -19.2334 22.6431 93.5182 -44.3923 9.05036 -3.26344 25.1203 -17.8254 14.0909 0.17096 34.1119 -4.36933 -19.8568 -7.90236 -0.0124434 -1.32991e-009 8.75243e-006 -1.47218e-008 
-5.09077 99.4041 91.657 1.24959 2.55715 -178.611 -16.5704 -9.72313 -18.0901 -0.265419 38.9576 3.46349 17.1879 -22.2728 2.00684 0.0462048 0.000530889 0.662642 13.6273 11.9038 -1.02159 -10.5344 5.73592 2.70976 3.08336 -12.3278 -6.6493 -26.1015 2.52216 -4.30353 -50.0108 10.0521 -32.6944 -25.2825 14.1085 -61.744 11.7538 7.87341 -15.9461 37.9393 5.95234 9.45637 34.2229 3.8851 11.5636 -15.5062 23.3651 90.6441 -41.3018 8.76205 -2.29343 25.2905 -16.8288 13.195 -0.0248089 33.408 -8.87348 -22.0208 -7.92406 -0.0205157 -1.32991e-009 8.75243e-006 -1.47218e-008 
-4.44842 99.5416 92.3647 0.842447 2.75028 -178.976 -16.5579 -10.3537 -17.6745 -0.275081 39.3482 3.30509 16.871 -22.1016 1.93872 0.0462048 0.000530889 0.662642 13.7146 12.2217 -1.42775 -10.6935 5.81494 2.41314 2.7816 -12.3769 -5.92037 -25.9756 2.54724 -4.41058 -49.7685 10.4905 -32.6272 -25.1351 13.6578 -60.7572 12.8782 7.64506 -16.0962 37.419 5.85892 9.40386 34.4712 3.58058 11.9038 -13.3174 23.784 88.4258 -38.4927 8.63408 -1.66221 25.0155 -15.8574 11.5105 -0.0290239 33.869 -9.29621 -21.5995 -8.34476 -0.0970124 -1.32991e-009 8.75243e-006 -1.47218e-008 
-4.02109 99.6782 93.0096 0.531055 2.9101 -179.621 -16.6113 -11.0271 -17.4301 -0.269649 39.6508 3.44223 16.0789 -21.7922 1.78944 0.0462048 0.000530889 0.662642 13.5548 12.6214 -1.60533 -10.6801 5.83587 2.29075 2.68031 -12.3894 -5.28011 -25.8314 2.56901 -4.51258 -49.5595 10.9639 -32.6431 -24.753 13.2842 -59.7512 13.6462 7.44147 -16.6061 37.1981 5.83055 9.40666 34.2926 3.41304 12.0686 -12.5502 24.0273 87.0759 -37.0375 8.57318 -1.31049 24.6924 -14.6943 10.1027 0.0633206 34.7645 -7.11179 -20.0089 -8.45474 -0.106715 -1.32991e-009 8.75243e-006 -1.47218e-008 
-3.82221 99.5703 93.6405 0.364464 2.87933 179.381 -16.7172 -12.3152 -16.9036 -0.265096 40.6233 3.61078 15.4749 -21.6853 1.69655 0.0462048 0.000530889 0.662642 13.2347 12.9512 -1.52577 -10.4177 5.88414 2.36996 2.80629 -12.6461 -4.78924 -25.517 2.58223 -4.63034 -49.6582 11.2194 -32.6756 -24.3671 13.1402 -59.1692 13.7511 7.38145 -16.9485 37.2179 5.84428 9.43193 33.8299 3.41682 12.2852 -12.2418 24.1682 86.2972 -36.9132 8.54265 -1.19896 24.6193 -13.4678 9.26041 0.11898 35.5168 -5.74267 -19.8568 -8.40505 -0.0966583 -1.32991e-009 8.75243e-006 -1.47218e-008 
-3.83676 99.1469 94.2578 0.234199 2.65135 178.379 -17.0577 -14.1501 -16.3614 -0.259562 42.3339 3.84874 15.4284 -21.9416 1.7257 0.0462048 0.000530889 0.662642 12.7821 13.0054 -1.35233 -9.98128 6.18809 2.48645 2.95892 -13.2588 -4.45387 -25.1311 2.59944 -4.78069 -49.9262 11.1749 -32.7474 -24.5554 12.9724 -58.9912 13.5154 7.42941 -16.9376 37.1445 5.84076 9.44642 33.6678 3.39332 12.6597 -12.2428 24.2287 86.021 -37.4291 8.56689 -1.33618 24.6022 -12.3386 8.69596 0.098624 35.6051 -6.30041 -21.5309 -9.3116 -0.28003 -1.32991e-009 8.75243e-006 -1.47218e-008 
-4.00357 98.5752 94.8505 0.113542 2.42681 177.661 -17.5548 -15.9932 -16.0545 -0.25391 44.2619 4.12464 15.4167 -22.3754 1.78328 0.0462048 0.000530889 0.662642 12.3289 13.056 -1.26116 -9.6521 6.51363 2.50181 2.91134 -13.9763 -4.22717 -25.0094 2.61785 -4.87018 -49.9846 11.0313 -32.9601 -25.3408 12.6209 -58.9385 13.7235 7.37889 -17.0162 36.9958 5.81704 9.43781 33.9147 3.21864 13.0537 -13.0401 24.2312 86.4002 -38.2283 8.63394 -1.63045 24.4108 -11.3803 8.2112 0.0618747 34.9387 -7.07414 -23.0131 -11.6911 -0.775078 -1.32991e-009 8.75243e-006 -1.47218e-008 
-4.2517 97.9982 95.4671 0.030338 2.29045 177.17 -17.9396 -17.6998 -15.6048 -0.265159 46.1362 4.07604 15.2132 -22.7444 1.80573 0.0462048 0.000530889 0.662642 11.781 13.4456 -1.21783 -9.37502 6.55006 2.42281 2.60196 -14.7726 -4.07077 -25.2833 2.61662 -4.79698 -49.8151 10.8981 -33.3917 -25.9877 12.3585 -58.9465 14.6244 7.14124 -17.4866 37.0709 5.81545 9.41111 34.0847 2.93669 13.5223 -14.3516 24.195 87.1323 -39.1852 8.68807 -1.89038 24.1507 -10.9523 8.08503 0.0741228 34.4135 -6.86763 -23.0206 -14.6073 -1.36381 -1.32991e-009 8.75243e-006 -1.47218e-008 
-4.5361 97.4272 96.1694 -0.152301 2.10727 176.813 -18.2594 -19.5216 -14.7647 -0.306663 47.9933 3.45812 15.1705 -23.0009 1.83441 0.0462048 0.000530889 0.662642 10.733 14.0027 -1.05643 -8.66988 6.51989 2.30648 2.16982 -15.9364 -4.01376 -25.6418 2.60245 -4.66284 -49.816 10.6214 -34.017 -25.9629 12.4504 -59.0944 15.7094 6.85319 -17.9918 37.382 5.85064 9.39624 33.9618 2.52484 14.3843 -15.2658 24.1861 87.5386 -39.8888 8.68909 -1.96163 23.9611 -11.584 8.64495 0.0910555 35.1391 -6.48733 -22.2006 -16.6682 -1.71893 -1.32991e-009 8.75243e-006 -1.47218e-008 
-4.86589 96.8972 96.9226 -0.487182 1.90302 176.646 -18.7172 -21.2677 -13.9502 -0.358806 49.6238 2.6322 15.3285 -23.1324 1.87446 0.0462048 0.000530889 0.662642 9.4301 14.5413 -0.793485 -7.61421 6.6637 2.22163 1.77362 -17.3477 -4.16708 -25.7171 2.61576 -4.68611 -50.1797 10.1306 -34.7155 -25.5521 12.7345 -59.3098 16.4682 6.68056 -18.0907 37.674 5.90727 9.43561 33.9403 1.83083 15.5955 -15.6471 24.2527 87.4459 -40.0267 8.64395 -1.84554 23.8525 -13.0476 9.56376 0.0723924 37.0063 -6.86329 -21.6171 -17.4952 -1.82876 -1.32991e-009 8.75243e-006 -1.47218e-008 
